<svg width="279" height="240" viewBox="0 0 279 240" fill="none" xmlns="http://www.w3.org/2000/svg">
<path d="M69.373 209.043C68.0723 209.16 67.1055 209.371 66.4727 209.676C65.8516 209.98 65.3301 210.514 64.9082 211.275L63.2031 210.045C63.7656 207.783 65.2188 206.371 67.5625 205.809C67.832 205.75 68.7344 205.604 70.2695 205.369C71.8164 205.135 72.7891 204.941 73.1875 204.789C74.3125 204.391 74.9629 203.67 75.1387 202.627L77.2656 203.77C76.8086 205.223 76.334 206.23 75.8418 206.793C74.9043 207.859 73.3633 208.516 71.2188 208.762C72.4023 210.859 72.9941 212.945 72.9941 215.02C72.9941 217.855 71.9102 220.205 69.7422 222.068C67.5859 223.932 64.6562 224.863 60.9531 224.863C57.8711 224.863 55.3281 224.213 53.3242 222.912C52.3398 222.268 51.5664 221.424 51.0039 220.381C50.4414 219.326 50.1602 218.119 50.1602 216.76C50.1602 214.486 51.25 212.629 53.4297 211.188C54.1797 210.684 55.082 210.256 56.1367 209.904V209.887C54.9062 209.57 53.8398 208.99 52.9375 208.146C52.0352 207.291 51.584 206.266 51.584 205.07C51.584 203.16 52.457 201.637 54.2031 200.5C55.9609 199.363 57.7773 198.795 59.6523 198.795C61.5391 198.795 63.0508 199.152 64.1875 199.867C65.3359 200.582 65.9102 201.613 65.9102 202.961C65.9102 203.652 65.6465 204.186 65.1191 204.561C64.5918 204.924 64.0117 205.105 63.3789 205.105C62.7578 205.105 62.207 205.082 61.7266 205.035C61.7969 204.578 61.832 204.121 61.832 203.664C61.832 202.586 61.5449 201.73 60.9707 201.098C60.3965 200.453 59.5762 200.131 58.5098 200.131C57.4551 200.131 56.5645 200.582 55.8379 201.484C55.1113 202.387 54.748 203.465 54.748 204.719C54.748 206.512 55.4277 207.754 56.7871 208.445C57.2324 208.668 57.6719 208.779 58.1055 208.779C58.5508 208.779 58.8965 208.891 59.1426 209.113C59.3887 209.324 59.5117 209.605 59.5117 209.957C59.5117 210.648 58.9902 210.994 57.9473 210.994C56.9043 210.994 55.9609 211.516 55.1172 212.559C54.2734 213.602 53.8516 214.779 53.8516 216.092C53.8516 218.354 55.2578 219.848 58.0703 220.574C59.0547 220.82 60.3555 220.943 61.9727 220.943C63.6016 220.943 65.0605 220.721 66.3496 220.275C67.6504 219.818 68.6934 219.074 69.4785 218.043C70.2754 217.012 70.6738 215.723 70.6738 214.176C70.6738 212.629 70.2402 210.918 69.373 209.043ZM87.6719 210.08C87.6719 211.65 87.959 213.104 88.5332 214.439C89.1074 215.764 89.8984 216.883 90.9062 217.797C93.0391 219.73 95.7754 220.697 99.1152 220.697C102.455 220.697 105.396 219.426 107.939 216.883C108.221 216.602 108.467 216.461 108.678 216.461C108.9 216.461 109.105 216.543 109.293 216.707C109.492 216.871 109.592 217.07 109.592 217.305C109.592 217.539 109.527 217.803 109.398 218.096H109.416C108.537 219.643 107.066 220.932 105.004 221.963C102.953 222.982 100.85 223.492 98.6934 223.492C96.5371 223.492 94.5742 223.217 92.8047 222.666C91.0352 222.115 89.4648 221.33 88.0938 220.311C86.7344 219.291 85.6504 217.99 84.8418 216.408C84.0332 214.814 83.6289 213.027 83.6289 211.047C83.6289 209.055 84.0098 207.238 84.7715 205.598C85.5332 203.945 86.582 202.58 87.918 201.502C90.6602 199.275 94.1582 198.162 98.4121 198.162C100.674 198.162 102.812 198.514 104.828 199.217C105.859 199.58 106.697 200.102 107.342 200.781C107.998 201.449 108.326 202.217 108.326 203.084C108.326 203.951 108.057 204.596 107.518 205.018C106.979 205.439 106.346 205.65 105.619 205.65C104.893 205.65 104.359 205.592 104.02 205.475C103.891 203.646 103.363 202.287 102.438 201.396C101.512 200.506 100.117 200.061 98.2539 200.061C95.0781 200.061 92.5176 200.986 90.5723 202.838C88.6387 204.678 87.6719 207.092 87.6719 210.08ZM128.102 223L126.59 223.018C125.055 223.018 124.105 222.783 123.742 222.314C123.578 222.104 123.496 221.852 123.496 221.559C123.496 221.254 123.613 221.043 123.848 220.926C124.082 220.809 124.34 220.744 124.621 220.732C124.914 220.721 125.178 220.633 125.412 220.469C125.646 220.293 125.764 220.018 125.764 219.643L125.781 214.527C125.781 212.371 125.523 210.783 125.008 209.764C124.445 208.615 123.273 208.041 121.492 208.041C119.617 208.041 118.305 208.633 117.555 209.816C116.875 210.918 116.535 212.518 116.535 214.615V219.643C116.535 220.322 116.91 220.686 117.66 220.732C118.422 220.768 118.803 221.066 118.803 221.629C118.803 222.273 118.445 222.672 117.73 222.824C117.215 222.941 116.482 223 115.533 223L114.021 223.018C112.486 223.018 111.537 222.783 111.174 222.314C111.01 222.104 110.928 221.852 110.928 221.559C110.928 221.254 111.045 221.043 111.279 220.926C111.514 220.809 111.771 220.744 112.053 220.732C112.346 220.721 112.609 220.633 112.844 220.469C113.078 220.293 113.195 220.018 113.195 219.643V200.5C113.195 199.82 112.773 199.41 111.93 199.27C111.344 199.176 110.986 199.076 110.857 198.971C110.74 198.854 110.682 198.666 110.682 198.408C110.682 198.15 110.805 197.916 111.051 197.705C111.297 197.494 111.619 197.336 112.018 197.23C112.721 197.043 113.506 196.949 114.373 196.949C115.826 196.949 116.553 197.389 116.553 198.268V208.48C118.146 206.676 120.162 205.773 122.6 205.773C125.037 205.773 126.73 206.4 127.68 207.654C128.641 208.896 129.121 210.783 129.121 213.314L129.104 219.643C129.104 220.322 129.479 220.686 130.229 220.732C130.99 220.768 131.371 221.066 131.371 221.629C131.371 222.273 131.02 222.672 130.316 222.824C129.777 222.941 129.039 223 128.102 223ZM141.672 223.439C139.023 223.439 136.891 222.607 135.273 220.943C133.656 219.268 132.848 217.146 132.848 214.58C132.848 212.869 133.275 211.346 134.131 210.01C134.986 208.674 136.141 207.654 137.594 206.951C139.059 206.236 140.688 205.879 142.48 205.879C145.059 205.879 147.186 206.682 148.861 208.287C150.537 209.893 151.375 211.967 151.375 214.51C151.375 216.268 150.941 217.832 150.074 219.203C149.219 220.562 148.059 221.611 146.594 222.35C145.129 223.076 143.488 223.439 141.672 223.439ZM142.393 221.488C144.139 221.488 145.498 220.896 146.471 219.713C147.455 218.529 147.947 216.953 147.947 214.984C147.947 213.016 147.385 211.316 146.26 209.887C145.135 208.457 143.688 207.742 141.918 207.742C140.16 207.742 138.807 208.346 137.857 209.553C136.908 210.76 136.434 212.342 136.434 214.299C136.434 216.256 136.99 217.943 138.104 219.361C139.217 220.779 140.646 221.488 142.393 221.488ZM168.672 214.896C168.672 212.189 167.887 210.221 166.316 208.99C165.496 208.357 164.518 208.041 163.381 208.041C160.018 208.041 158.336 209.934 158.336 213.719V219.502C159.285 220.732 160.92 221.348 163.24 221.348C164.928 221.348 166.252 220.744 167.213 219.537C168.186 218.318 168.672 216.771 168.672 214.896ZM157.334 230.207L155.822 230.225C154.287 230.225 153.338 229.99 152.975 229.521C152.811 229.311 152.729 229.053 152.729 228.748C152.729 228.455 152.846 228.25 153.08 228.133C153.314 228.016 153.572 227.951 153.854 227.939C154.146 227.928 154.41 227.834 154.645 227.658C154.879 227.494 154.996 227.225 154.996 226.85V210.994C154.996 210.15 154.932 209.57 154.803 209.254C154.686 208.926 154.41 208.68 153.977 208.516C153.93 208.492 153.695 208.434 153.273 208.34C152.395 208.129 151.955 207.836 151.955 207.461C151.955 206.547 153.133 206.09 155.488 206.09C156.484 206.09 157.182 206.207 157.58 206.441C157.979 206.676 158.178 207.18 158.178 207.953C158.178 208.188 158.172 208.363 158.16 208.48C159.062 207.602 159.971 206.934 160.885 206.477C161.799 206.02 162.965 205.791 164.383 205.791C165.801 205.791 167.125 206.189 168.355 206.986C169.598 207.783 170.535 208.838 171.168 210.15C171.801 211.451 172.117 212.904 172.117 214.51C172.117 217.053 171.285 219.15 169.621 220.803C167.957 222.455 165.842 223.281 163.275 223.281C161.834 223.281 160.188 222.807 158.336 221.857V226.85C158.336 227.529 158.711 227.887 159.461 227.922C160.223 227.969 160.604 228.273 160.604 228.836C160.604 229.48 160.246 229.879 159.531 230.031C159.016 230.148 158.283 230.207 157.334 230.207ZM181.645 221.4C184.281 221.4 185.6 220.592 185.6 218.975C185.6 217.756 184.41 216.801 182.031 216.109C181.586 215.98 181.047 215.828 180.414 215.652C179.23 215.336 178.434 215.096 178.023 214.932C176.992 214.533 176.119 213.953 175.404 213.191C174.689 212.43 174.332 211.527 174.332 210.484C174.332 209.137 174.971 208.018 176.248 207.127C177.537 206.236 179.09 205.791 180.906 205.791C182.676 205.791 184.334 206.113 185.881 206.758C186.643 207.074 187.258 207.514 187.727 208.076C188.207 208.639 188.447 209.225 188.447 209.834C188.447 210.443 188.201 210.93 187.709 211.293C187.229 211.656 186.725 211.838 186.197 211.838C185.682 211.838 185.336 211.791 185.16 211.697C184.996 211.592 184.914 211.357 184.914 210.994C184.914 208.732 183.713 207.602 181.311 207.602C180.314 207.602 179.447 207.824 178.709 208.27C177.971 208.703 177.602 209.271 177.602 209.975C177.602 211.076 178.75 211.949 181.047 212.594C181.41 212.688 181.85 212.805 182.365 212.945C182.881 213.074 183.355 213.209 183.789 213.35C184.223 213.479 184.674 213.637 185.143 213.824C185.623 214 186.127 214.234 186.654 214.527C187.182 214.82 187.609 215.137 187.938 215.477C188.699 216.25 189.08 217.188 189.08 218.289C189.08 219.379 188.711 220.322 187.973 221.119C186.508 222.678 184.398 223.457 181.645 223.457C179.852 223.457 178.199 223.164 176.688 222.578C175.914 222.273 175.293 221.852 174.824 221.312C174.355 220.773 174.121 220.199 174.121 219.59C174.121 218.98 174.314 218.512 174.701 218.184C175.088 217.844 175.527 217.674 176.02 217.674C176.512 217.674 176.928 217.826 177.268 218.131C177.619 218.436 177.795 218.816 177.795 219.273C177.795 219.719 177.754 220.199 177.672 220.715C178.914 221.172 180.238 221.4 181.645 221.4Z" fill="black"/>
<path d="M42 203.352C37.136 203.352 33.136 202.2 30 199.896C26.928 197.592 24.656 194.616 23.184 190.968C21.776 187.32 21.072 183.544 21.072 179.64C21.072 174.584 21.84 169.528 23.376 164.472C24.912 159.352 27.024 154.488 29.712 149.88C32.464 145.272 35.568 141.176 39.024 137.592C42.48 134.008 46.16 131.192 50.064 129.144C54.032 127.032 57.968 125.976 61.872 125.976C64.688 125.976 67.056 126.648 68.976 127.992C70.896 129.272 71.856 131.512 71.856 134.712C71.856 136.632 71.504 138.776 70.8 141.144C70.16 143.512 69.264 145.816 68.112 148.056C67.024 150.232 65.776 152.024 64.368 153.432C62.96 154.84 61.52 155.544 60.048 155.544C59.408 155.544 58.736 155.32 58.032 154.872C57.328 154.424 56.688 153.656 56.112 152.568C57.072 151.48 58.16 150.168 59.376 148.632C60.592 147.032 61.744 145.368 62.832 143.64C63.92 141.848 64.816 140.12 65.52 138.456C66.224 136.728 66.576 135.224 66.576 133.944C66.576 132.792 66.256 131.896 65.616 131.256C64.976 130.552 63.856 130.2 62.256 130.2C59.44 130.2 56.528 131.256 53.52 133.368C50.576 135.48 47.728 138.328 44.976 141.912C42.224 145.432 39.728 149.4 37.488 153.816C35.312 158.168 33.584 162.68 32.304 167.352C31.024 171.96 30.384 176.344 30.384 180.504C30.384 183.576 30.832 186.52 31.728 189.336C32.688 192.088 34.192 194.328 36.24 196.056C38.288 197.848 40.976 198.744 44.304 198.744C47.76 198.744 51.184 197.784 54.576 195.864C58.032 193.944 61.168 191.416 63.984 188.28C66.864 185.144 69.168 181.784 70.896 178.2L73.392 179.832C71.152 184.12 68.464 188.056 65.328 191.64C62.192 195.16 58.64 197.976 54.672 200.088C50.768 202.264 46.544 203.352 42 203.352ZM74.001 199.512C71.889 199.512 70.065 198.808 68.529 197.4C66.929 195.992 66.129 193.88 66.129 191.064C66.129 188.824 66.641 186.392 67.665 183.768C68.689 181.144 70.097 178.552 71.889 175.992C73.681 173.432 75.729 171.128 78.033 169.08C80.337 166.968 82.801 165.272 85.425 163.992C88.049 162.712 90.673 162.072 93.297 162.072C96.049 162.072 98.385 162.776 100.305 164.184C102.225 165.592 103.185 167.448 103.185 169.752C103.185 171.48 102.577 172.728 101.361 173.496C100.145 174.264 98.705 174.488 97.041 174.168C97.169 173.592 97.265 173.016 97.329 172.44C97.457 171.864 97.521 171.256 97.521 170.616C97.521 169.336 97.265 168.184 96.753 167.16C96.241 166.136 95.153 165.624 93.489 165.624C91.697 165.624 89.873 166.232 88.017 167.448C86.161 168.664 84.369 170.264 82.641 172.248C80.977 174.168 79.473 176.312 78.129 178.68C76.785 180.984 75.729 183.256 74.961 185.496C74.193 187.736 73.809 189.752 73.809 191.544C73.809 193.592 74.545 194.616 76.017 194.616C77.489 194.616 79.121 193.912 80.913 192.504C82.705 191.032 84.497 189.208 86.289 187.032C88.145 184.856 89.905 182.648 91.569 180.408C93.233 178.104 94.673 176.152 95.889 174.552C96.081 174.232 96.337 174.072 96.657 174.072C96.913 174.136 97.393 174.296 98.097 174.552C98.865 174.744 99.569 175.064 100.209 175.512C100.849 175.96 101.169 176.536 101.169 177.24C101.169 177.88 100.881 178.712 100.305 179.736C99.793 180.696 99.153 181.784 98.385 183C97.681 184.152 97.041 185.336 96.465 186.552C95.953 187.704 95.697 188.824 95.697 189.912C95.697 190.744 95.921 191.544 96.369 192.312C96.817 193.016 97.553 193.368 98.577 193.368C100.113 193.368 102.257 192.248 105.009 190.008C107.825 187.704 110.673 183.832 113.553 178.392L115.377 180.216C113.841 183.672 111.985 186.744 109.809 189.432C107.697 192.056 105.457 194.104 103.089 195.576C100.721 197.112 98.321 197.88 95.889 197.88C93.265 197.88 91.313 197.048 90.033 195.384C88.753 193.72 88.049 191.928 87.921 190.008C87.921 189.88 87.921 189.784 87.921 189.72C87.921 189.656 87.921 189.592 87.921 189.528C85.361 192.6 82.993 195.032 80.817 196.824C78.705 198.616 76.433 199.512 74.001 199.512ZM141.713 198.648C139.729 198.648 138.001 198.008 136.529 196.728C135.057 195.448 133.873 193.848 132.977 191.928C132.081 190.008 131.409 188.056 130.961 186.072C130.513 184.024 130.289 182.264 130.289 180.792C131.185 180.6 132.305 180.312 133.649 179.928C134.993 179.544 136.369 179.032 137.777 178.392C139.185 177.688 140.337 176.856 141.233 175.896C142.193 174.872 142.673 173.656 142.673 172.248C142.673 171.096 142.289 170.168 141.521 169.464C140.817 168.76 139.793 168.408 138.449 168.408C136.657 168.408 134.961 169.016 133.361 170.232C131.761 171.384 130.257 172.92 128.849 174.84C127.505 176.76 126.257 178.84 125.105 181.08C124.017 183.32 123.025 185.496 122.129 187.608C121.297 189.72 120.593 191.544 120.017 193.08C119.313 195 118.641 196.28 118.001 196.92C117.361 197.624 116.433 197.976 115.217 197.976C114.769 197.976 114.225 197.848 113.585 197.592C113.009 197.336 112.497 196.696 112.049 195.672C111.665 194.648 111.473 193.016 111.473 190.776C111.473 186.872 112.017 182.584 113.105 177.912C114.193 173.24 115.633 168.504 117.425 163.704C119.281 158.84 121.297 154.2 123.473 149.784C125.649 145.368 127.857 141.4 130.097 137.88C132.337 134.36 134.417 131.576 136.337 129.528C138.321 127.48 139.953 126.456 141.233 126.456C142.321 126.456 143.217 127.128 143.921 128.472C144.689 129.752 145.073 131.416 145.073 133.464C145.073 135.64 144.593 138.072 143.633 140.76C142.673 143.384 141.297 146.072 139.505 148.824C137.777 151.512 135.697 154.072 133.265 156.504C130.833 158.936 128.145 161.016 125.201 162.744C123.409 166.904 122.033 171.032 121.073 175.128C120.113 179.16 119.505 182.744 119.249 185.88C120.401 183.256 121.713 180.568 123.185 177.816C124.657 175.064 126.289 172.504 128.081 170.136C129.873 167.704 131.793 165.752 133.841 164.28C135.953 162.808 138.193 162.072 140.561 162.072C143.121 162.072 145.361 162.968 147.281 164.76C149.201 166.552 150.161 168.792 150.161 171.48C150.161 173.4 149.649 175.064 148.625 176.472C147.601 177.88 146.321 179.064 144.785 180.024C143.313 180.92 141.809 181.592 140.273 182.04C138.737 182.488 137.425 182.744 136.337 182.808C136.529 183.64 136.785 184.696 137.105 185.976C137.489 187.256 137.969 188.504 138.545 189.72C139.121 190.936 139.857 191.96 140.753 192.792C141.649 193.624 142.705 194.04 143.921 194.04C145.521 194.04 147.153 193.304 148.817 191.832C150.545 190.36 152.209 188.408 153.809 185.976C155.473 183.544 156.945 180.856 158.225 177.912L159.569 179.544C158.481 182.744 156.977 185.816 155.057 188.76C153.201 191.704 151.121 194.072 148.817 195.864C146.513 197.72 144.145 198.648 141.713 198.648ZM127.985 156.216C129.713 154.68 131.537 152.792 133.457 150.552C135.377 148.248 137.009 145.816 138.353 143.256C139.761 140.632 140.497 138.136 140.561 135.768C140.561 135.704 140.561 135.672 140.561 135.672C140.561 135.608 140.561 135.544 140.561 135.48C139.921 135.736 138.897 136.856 137.489 138.84C136.145 140.76 134.641 143.224 132.977 146.232C131.313 149.24 129.649 152.568 127.985 156.216ZM166.761 199.224C162.665 199.224 159.497 198.104 157.257 195.864C155.081 193.688 153.993 190.936 153.993 187.608C153.993 184.792 154.697 181.816 156.105 178.68C157.577 175.48 159.529 172.504 161.961 169.752C164.393 166.936 167.081 164.664 170.025 162.936C172.969 161.208 175.913 160.344 178.857 160.344C180.521 160.344 182.089 160.792 183.561 161.688C185.097 162.52 185.865 164.216 185.865 166.776C185.865 169.208 185.161 171.48 183.753 173.592C182.345 175.704 180.457 177.592 178.089 179.256C175.721 180.92 173.097 182.296 170.217 183.384C167.401 184.408 164.553 185.08 161.673 185.4C161.609 185.656 161.545 185.944 161.481 186.264C161.481 186.52 161.481 186.968 161.481 187.608C161.481 187.928 161.513 188.504 161.577 189.336C161.705 190.104 161.993 190.936 162.441 191.832C162.889 192.728 163.625 193.496 164.649 194.136C165.673 194.776 167.081 195.096 168.873 195.096C171.561 195.096 174.249 194.36 176.937 192.888C179.689 191.352 182.249 189.336 184.617 186.84C187.049 184.344 189.065 181.56 190.665 178.488L192.585 180.024C190.857 183.864 188.617 187.224 185.865 190.104C183.177 192.984 180.169 195.224 176.841 196.824C173.577 198.424 170.217 199.224 166.761 199.224ZM162.729 181.848C164.393 181.656 166.249 181.08 168.297 180.12C170.345 179.16 172.297 177.944 174.153 176.472C176.073 175 177.641 173.4 178.857 171.672C180.073 169.88 180.681 168.088 180.681 166.296C180.681 165.592 180.553 165.112 180.297 164.856C180.041 164.6 179.625 164.472 179.049 164.472C177.577 164.472 176.041 165.016 174.441 166.104C172.841 167.128 171.273 168.504 169.737 170.232C168.201 171.896 166.825 173.752 165.609 175.8C164.393 177.848 163.433 179.864 162.729 181.848ZM199.576 199.896C196.376 199.896 193.784 199.224 191.8 197.88C189.88 196.6 188.504 194.968 187.672 192.984C186.84 190.936 186.424 188.856 186.424 186.744C186.424 184.888 186.68 183.448 187.192 182.424C187.704 181.4 188.344 180.664 189.112 180.216C189.88 179.704 190.584 179.32 191.224 179.064C191.928 178.808 192.44 178.52 192.76 178.2C194.36 176.536 195.992 174.616 197.656 172.44C199.384 170.2 200.856 167.736 202.072 165.048V164.088C202.072 161.528 202.488 159.736 203.32 158.712C204.216 157.624 205.24 157.08 206.392 157.08C207.16 157.08 207.704 157.272 208.024 157.656C208.408 158.04 208.632 158.488 208.696 159C208.696 159.384 208.6 159.832 208.408 160.344C208.28 160.856 208.216 161.56 208.216 162.456C208.216 164.376 208.664 166.584 209.56 169.08C210.52 171.512 211.448 174.104 212.344 176.856C213.304 179.608 213.784 182.424 213.784 185.304C213.784 186.072 213.752 186.776 213.688 187.416C213.624 188.056 213.528 188.664 213.4 189.24C215.384 188.728 217.336 187.64 219.256 185.976C221.176 184.248 223 181.72 224.728 178.392L225.88 179.256C224.664 182.904 222.904 185.848 220.6 188.088C218.296 190.264 215.608 191.608 212.536 192.12C211.512 194.744 209.816 196.696 207.448 197.976C205.144 199.256 202.52 199.896 199.576 199.896ZM198.904 195.672C200.184 195.672 201.368 195.352 202.456 194.712C203.544 194.072 204.408 193.144 205.048 191.928C202.424 191.352 200.056 190.328 197.944 188.856C195.832 187.384 194.2 185.88 193.048 184.344C192.152 184.536 191.704 185.4 191.704 186.936C191.704 189.048 192.312 191.032 193.528 192.888C194.744 194.744 196.536 195.672 198.904 195.672ZM205.816 189.048C205.944 188.6 206.008 188.088 206.008 187.512C206.072 186.872 206.104 186.392 206.104 186.072C206.04 183.192 205.656 180.344 204.952 177.528C204.248 174.712 203.544 171.832 202.84 168.888C201.688 170.872 200.344 173.016 198.808 175.32C197.272 177.624 195.832 179.48 194.488 180.888C195.512 182.616 197.016 184.248 199 185.784C200.984 187.32 203.256 188.408 205.816 189.048Z" fill="#FF1493"/>
<path d="M58 104.591V95.4545H97.3409V104.591H83.2273V142H72.1364V104.591H58ZM107.926 142.591C105.699 142.591 103.722 142.22 101.994 141.477C100.282 140.72 98.9261 139.583 97.9261 138.068C96.9413 136.538 96.4489 134.621 96.4489 132.318C96.4489 130.379 96.7898 128.742 97.4716 127.409C98.1534 126.076 99.0928 124.992 100.29 124.159C101.487 123.326 102.866 122.697 104.426 122.273C105.987 121.833 107.653 121.538 109.426 121.386C111.411 121.205 113.009 121.015 114.222 120.818C115.434 120.606 116.313 120.311 116.858 119.932C117.419 119.538 117.699 118.985 117.699 118.273V118.159C117.699 116.992 117.297 116.091 116.494 115.455C115.691 114.818 114.608 114.5 113.244 114.5C111.775 114.5 110.593 114.818 109.699 115.455C108.805 116.091 108.237 116.97 107.994 118.091L97.7443 117.727C98.0473 115.606 98.8277 113.712 100.085 112.045C101.358 110.364 103.1 109.045 105.312 108.091C107.54 107.121 110.214 106.636 113.335 106.636C115.563 106.636 117.616 106.902 119.494 107.432C121.373 107.947 123.009 108.705 124.403 109.705C125.797 110.689 126.873 111.902 127.631 113.341C128.403 114.78 128.79 116.424 128.79 118.273V142H118.335V137.136H118.062C117.441 138.318 116.646 139.318 115.676 140.136C114.722 140.955 113.593 141.568 112.29 141.977C111.002 142.386 109.547 142.591 107.926 142.591ZM111.358 135.318C112.555 135.318 113.631 135.076 114.585 134.591C115.555 134.106 116.328 133.439 116.903 132.591C117.479 131.727 117.767 130.727 117.767 129.591V126.273C117.449 126.439 117.063 126.591 116.608 126.727C116.169 126.864 115.684 126.992 115.153 127.114C114.623 127.235 114.078 127.341 113.517 127.432C112.956 127.523 112.419 127.606 111.903 127.682C110.858 127.848 109.964 128.106 109.222 128.455C108.494 128.803 107.934 129.258 107.54 129.818C107.161 130.364 106.972 131.015 106.972 131.773C106.972 132.924 107.381 133.803 108.199 134.409C109.032 135.015 110.085 135.318 111.358 135.318ZM142.108 142L133.017 107.091H144.176L148.881 129.455H149.176L154.222 107.091H165.108L170.29 129.295H170.585L175.153 107.091H186.312L177.199 142H165.312L159.858 121.659H159.472L154.017 142H142.108ZM200.614 142.591C198.386 142.591 196.409 142.22 194.682 141.477C192.97 140.72 191.614 139.583 190.614 138.068C189.629 136.538 189.136 134.621 189.136 132.318C189.136 130.379 189.477 128.742 190.159 127.409C190.841 126.076 191.78 124.992 192.977 124.159C194.174 123.326 195.553 122.697 197.114 122.273C198.674 121.833 200.341 121.538 202.114 121.386C204.098 121.205 205.697 121.015 206.909 120.818C208.121 120.606 209 120.311 209.545 119.932C210.106 119.538 210.386 118.985 210.386 118.273V118.159C210.386 116.992 209.985 116.091 209.182 115.455C208.379 114.818 207.295 114.5 205.932 114.5C204.462 114.5 203.28 114.818 202.386 115.455C201.492 116.091 200.924 116.97 200.682 118.091L190.432 117.727C190.735 115.606 191.515 113.712 192.773 112.045C194.045 110.364 195.788 109.045 198 108.091C200.227 107.121 202.902 106.636 206.023 106.636C208.25 106.636 210.303 106.902 212.182 107.432C214.061 107.947 215.697 108.705 217.091 109.705C218.485 110.689 219.561 111.902 220.318 113.341C221.091 114.78 221.477 116.424 221.477 118.273V142H211.023V137.136H210.75C210.129 138.318 209.333 139.318 208.364 140.136C207.409 140.955 206.28 141.568 204.977 141.977C203.689 142.386 202.235 142.591 200.614 142.591ZM204.045 135.318C205.242 135.318 206.318 135.076 207.273 134.591C208.242 134.106 209.015 133.439 209.591 132.591C210.167 131.727 210.455 130.727 210.455 129.591V126.273C210.136 126.439 209.75 126.591 209.295 126.727C208.856 126.864 208.371 126.992 207.841 127.114C207.311 127.235 206.765 127.341 206.205 127.432C205.644 127.523 205.106 127.606 204.591 127.682C203.545 127.848 202.652 128.106 201.909 128.455C201.182 128.803 200.621 129.258 200.227 129.818C199.848 130.364 199.659 131.015 199.659 131.773C199.659 132.924 200.068 133.803 200.886 134.409C201.72 135.015 202.773 135.318 204.045 135.318ZM228.364 142V135.659L244.545 115.955V115.727H228.932V107.091H257.795V114.045L242.795 133.136V133.364H258.341V142H228.364Z" fill="black"/>
<path d="M242 86.1326C242 20.3199 160.77 0.13702 106.889 2.13261C55.5842 4.03278 2 49.2578 2 102.133" stroke="#FFA500" stroke-width="3" stroke-linecap="round"/>
<path d="M2 102.133C4.56315 122.638 21.5441 97.7025 25.1111 93.2437C35.5713 80.1685 34.0486 95.1743 41.1111 103.021C61.7403 125.943 57.1576 36.1924 75.7778 60.1326C80.6697 66.4222 79.5471 83.4317 88.2222 85.9103C104.258 90.4919 101.483 71.4419 102 62.1326C103.543 34.3574 115.487 74.7033 117.111 78.1326C121.267 86.9064 120.238 112.167 133.778 109.91C147.889 107.559 146 86.2008 146 76.1326C146 52.786 158 70.6625 158 84.1326C158 103.849 177.246 79.3883 179.778 76.1326C184.924 69.5165 179.062 65.5224 182.889 74.1326C186.008 81.1501 186 86.4369 186 94.1326C186 96.9676 191.123 121.901 197.111 117.244C208.382 108.477 206.768 93.6753 209.778 80.1326C212.8 66.5346 221.114 58.0323 226.222 75.9103C229.59 87.6959 242 104.713 242 82.1326" stroke="#FFA500" stroke-width="3" stroke-linecap="round"/>
<path d="M222 206C221.366 208.565 213.161 212.288 211.005 215.556C207.738 220.507 204.14 224.019 196.271 227.111C178.49 234.099 145.581 236 123.042 236C104.123 236 90.7434 235.636 73.5625 231.778C69.2115 230.801 53.3604 226.57 50.0324 224.889C43.5124 221.595 40.1874 216.068 32 214" stroke="black" stroke-width="3" stroke-linecap="round"/>
</svg>
